<svg xmlns="http://www.w3.org/2000/svg" width="1280" height="560" viewBox="0 0 1280 560">
  <rect x="0" y="0" width="1280" height="560" fill="#0f1722"/>
  <text x="44" y="56" fill="#dbe8ff" font-family="Segoe UI, Arial, sans-serif" font-size="32" font-weight="700">Checkout Request Path (Incident Context)</text>

  <g font-family="Segoe UI, Arial, sans-serif" font-size="18" text-anchor="middle">
    <rect x="58" y="200" width="180" height="95" rx="12" fill="#1b2638" stroke="#3a4c66"/>
    <text x="148" y="252" fill="#c8d8ef">Mobile App</text>

    <rect x="292" y="190" width="210" height="115" rx="12" fill="#3a1f28" stroke="#ff7a7a" stroke-width="2"/>
    <text x="397" y="244" fill="#ffd2d2">CDN Edge</text>
    <text x="397" y="269" fill="#ffb0b0" font-size="14">misconfigured cache rule</text>

    <rect x="556" y="200" width="190" height="95" rx="12" fill="#1b2638" stroke="#3a4c66"/>
    <text x="651" y="252" fill="#c8d8ef">API Gateway</text>

    <rect x="800" y="200" width="190" height="95" rx="12" fill="#1b2638" stroke="#3a4c66"/>
    <text x="895" y="252" fill="#c8d8ef">Checkout API</text>

    <rect x="1044" y="200" width="180" height="95" rx="12" fill="#1b2638" stroke="#3a4c66"/>
    <text x="1134" y="252" fill="#c8d8ef">Payments DB</text>
  </g>

  <g stroke="#6f8fb4" stroke-width="4" fill="none" marker-end="url(#arrow)">
    <defs>
      <marker id="arrow" viewBox="0 0 10 10" refX="8" refY="5" markerWidth="8" markerHeight="8" orient="auto-start-reverse">
        <path d="M0,0 L10,5 L0,10 z" fill="#6f8fb4"/>
      </marker>
    </defs>
    <line x1="238" y1="248" x2="292" y2="248"/>
    <line x1="502" y1="248" x2="556" y2="248"/>
    <line x1="746" y1="248" x2="800" y2="248"/>
    <line x1="990" y1="248" x2="1044" y2="248"/>
  </g>

  <g font-family="Consolas, monospace" font-size="15" fill="#95aac7">
    <text x="336" y="350">Rule: cache key dropped auth header on mobile path</text>
    <text x="336" y="376">Effect: stale denial responses replayed globally</text>
  </g>

  <rect x="58" y="410" width="1166" height="96" rx="10" fill="#162235" stroke="#2d3a4f"/>
  <text x="86" y="446" fill="#dbe8ff" font-family="Segoe UI, Arial, sans-serif" font-size="18" font-weight="600">Response notes</text>
  <text x="86" y="474" fill="#9fb4cd" font-family="Segoe UI, Arial, sans-serif" font-size="16">- Cache rule reverted at 17:49 UTC</text>
  <text x="86" y="498" fill="#9fb4cd" font-family="Segoe UI, Arial, sans-serif" font-size="16">- Edge purge + config sync completed in under 2 minutes</text>
</svg>
