<svg xmlns="http://www.w3.org/2000/svg" width="1280" height="720" viewBox="0 0 1280 720">
  <defs>
    <linearGradient id="bg" x1="0" y1="0" x2="0" y2="1">
      <stop offset="0%" stop-color="#0f1722"/>
      <stop offset="100%" stop-color="#121b2b"/>
    </linearGradient>
  </defs>
  <rect x="0" y="0" width="1280" height="720" fill="url(#bg)"/>
  <text x="48" y="62" fill="#dbe8ff" font-family="Segoe UI, Arial, sans-serif" font-size="34" font-weight="700">Mobile Checkout Success Rate - Incident Window</text>
  <text x="48" y="94" fill="#8ca4c3" font-family="Segoe UI, Arial, sans-serif" font-size="18">UTC 17:40 - 17:54 | SEV-1</text>

  <g stroke="#2d3a4f" stroke-width="1">
    <line x1="80" y1="620" x2="1220" y2="620"/>
    <line x1="80" y1="545" x2="1220" y2="545"/>
    <line x1="80" y1="470" x2="1220" y2="470"/>
    <line x1="80" y1="395" x2="1220" y2="395"/>
    <line x1="80" y1="320" x2="1220" y2="320"/>
    <line x1="80" y1="245" x2="1220" y2="245"/>
    <line x1="80" y1="170" x2="1220" y2="170"/>
  </g>

  <g fill="#8ca4c3" font-family="Consolas, monospace" font-size="15">
    <text x="30" y="624">20%</text>
    <text x="30" y="549">30%</text>
    <text x="30" y="474">40%</text>
    <text x="30" y="399">50%</text>
    <text x="30" y="324">60%</text>
    <text x="30" y="249">70%</text>
    <text x="30" y="174">80%</text>
  </g>

  <polyline fill="none" stroke="#5b9fd4" stroke-width="5"
    points="80,122 170,118 260,120 350,119 440,124 530,126 620,130 710,136 800,145 890,153 980,150 1070,146 1160,141 1220,138"/>

  <polyline fill="none" stroke="#ff6b6b" stroke-width="6"
    points="80,125 170,126 260,128 350,130 440,280 530,400 620,505 710,560 800,570 890,535 980,470 1070,345 1160,205 1220,150"/>

  <line x1="440" y1="110" x2="440" y2="620" stroke="#ff7a7a" stroke-width="2" stroke-dasharray="8 8"/>
  <line x1="980" y1="110" x2="980" y2="620" stroke="#67c23a" stroke-width="2" stroke-dasharray="8 8"/>

  <rect x="458" y="172" width="225" height="56" rx="8" fill="#2a1f27" stroke="#ff7a7a"/>
  <text x="472" y="205" fill="#ffb0b0" font-family="Segoe UI, Arial, sans-serif" font-size="17">Bad CDN rule deployed</text>

  <rect x="998" y="210" width="208" height="56" rx="8" fill="#1f2b20" stroke="#67c23a"/>
  <text x="1012" y="243" fill="#b8efb8" font-family="Segoe UI, Arial, sans-serif" font-size="17">Rollback applied</text>

  <rect x="860" y="54" width="340" height="94" rx="10" fill="#162235" stroke="#2d3a4f"/>
  <text x="880" y="84" fill="#dbe8ff" font-family="Segoe UI, Arial, sans-serif" font-size="18" font-weight="600">Legend</text>
  <line x1="882" y1="104" x2="930" y2="104" stroke="#5b9fd4" stroke-width="5"/>
  <text x="940" y="109" fill="#9fb4cd" font-family="Segoe UI, Arial, sans-serif" font-size="15">Expected baseline</text>
  <line x1="882" y1="128" x2="930" y2="128" stroke="#ff6b6b" stroke-width="6"/>
  <text x="940" y="133" fill="#9fb4cd" font-family="Segoe UI, Arial, sans-serif" font-size="15">Observed incident traffic</text>
</svg>
